<?xml version="1.0" encoding="utf-8"?>
<!-- Generator: Adobe Illustrator 19.2.1, SVG Export Plug-In . SVG Version: 6.00 Build 0)  -->
<svg version="1.1" id="layer" xmlns="http://www.w3.org/2000/svg" xmlns:xlink="http://www.w3.org/1999/xlink" x="0px" y="0px"
	 viewBox="0 0 652 652" style="enable-background:new 0 0 652 652;" xml:space="preserve">
<style type="text/css">
	.st0{fill-rule:evenodd;clip-rule:evenodd;fill:#2F3068;}
	.st1{fill:none;stroke:#FFE100;stroke-width:5.263;}
	.st2{fill:#FFE100;}
	.st3{fill-rule:evenodd;clip-rule:evenodd;fill:#FFE100;}
	.st4{fill:none;stroke:#2F3068;stroke-width:0.5718;}
</style>
<g>
	<path class="st0" d="M321,70.8c-59.1,29.3-124.6,36.5-189.5,21.1v265.8c1.9,35.7,15,66.6,34.2,97.4c33.8,54.5,90,98.9,155.3,115.8
		c65.2-16.9,121.5-61.3,155.3-115.8c19.2-30.8,32.3-61.7,34.2-97.4V91.8C445.6,107.2,380.1,100.1,321,70.8"/>
	<path class="st0" d="M321,79.3C263.9,107.7,200.7,116,138.1,101v255.4c1.9,34.6,14.5,64.5,33,94.3c32.6,52.7,86.9,95.8,149.9,112.1
		c63-16.4,117.3-59.4,149.9-112.1c18.5-29.8,31.2-59.7,33-94.3V101C441.2,116,378,107.7,321,79.3"/>
</g>
<g>
	<path class="st1" d="M321,79.3C263.9,107.7,200.7,116,138.1,101v255.4c1.9,34.6,14.5,64.5,33,94.3c32.6,52.7,86.9,95.8,149.9,112.1
		c63-16.4,117.3-59.4,149.9-112.1c18.5-29.8,31.2-59.7,33-94.3V101C441.2,116,378,107.7,321,79.3z"/>
</g>
<g>
	<path class="st2" d="M179.9,173.2l7.7,3.7c-1.2,6.6-3.2,11.5-6,14.6c-2.8,3.1-6.2,4.6-10.3,4.6c-5.1,0-9.3-2.4-12.5-7.3
		c-3.7-5.6-5.5-13.2-5.5-22.8c0-10.1,1.8-18,5.5-23.8c3.2-5,7.5-7.5,12.9-7.5c4.4,0,8.1,1.9,11.1,5.6c2.1,2.6,3.7,6.6,4.6,11.8
		l-7.8,2.8c-0.5-3.2-1.5-5.7-3-7.4c-1.5-1.7-3.3-2.6-5.3-2.6c-2.9,0-5.3,1.6-7.1,4.7c-1.8,3.1-2.8,8.3-2.8,15.5
		c0,7.5,0.9,12.8,2.7,16c1.8,3.1,4.1,4.7,7,4.7c2.1,0,3.9-1,5.4-3C178.1,180.7,179.2,177.5,179.9,173.2"/>
	<path class="st2" d="M229.8,195h-8.6l-3.4-13.4H202l-3.3,13.4h-8.4l15.3-59.4h8.4L229.8,195z M215.2,171.5l-5.4-22l-5.3,22H215.2z"
		/>
	<polygon class="st2" points="234.2,195 234.2,136.1 242.1,136.1 242.1,185 261.9,185 261.9,195 	"/>
	<rect x="267.3" y="135.6" class="st2" width="7.9" height="59.4"/>
	<polygon class="st2" points="282.9,195 282.9,135.6 309.8,135.6 309.8,145.7 290.8,145.7 290.8,159.7 307.3,159.7 307.3,169.8 
		290.8,169.8 290.8,195 	"/>
	<path class="st2" d="M314.8,165.7c0-7.1,0.8-12.9,2.5-17.5c1.7-4.6,3.9-8,6.6-10.2c2.7-2.2,6-3.4,9.9-3.4c5.6,0,10.2,2.7,13.8,8
		c3.5,5.3,5.3,12.9,5.3,22.7c0,9.9-1.9,17.7-5.6,23.3c-3.3,4.9-7.8,7.4-13.4,7.4c-5.7,0-10.2-2.4-13.5-7.3
		C316.6,183.1,314.8,175.4,314.8,165.7 M323,165.3c0,6.8,1,12,3.1,15.4c2.1,3.4,4.7,5.1,7.8,5.1c3.1,0,5.7-1.7,7.8-5.1
		c2.1-3.4,3.1-8.6,3.1-15.6c0-6.9-1-12-3-15.3c-2-3.3-4.6-4.9-7.8-4.9c-3.2,0-5.9,1.7-7.9,5C324,153.2,323,158.3,323,165.3"/>
	<path class="st2" d="M359.2,195v-59.4h16.7c4.3,0,7.3,0.5,9.2,1.6c1.8,1.1,3.3,2.9,4.5,5.5c1.2,2.6,1.8,5.8,1.8,9.5
		c0,4.6-0.9,8.4-2.7,11.2c-1.8,2.8-4.4,4.6-7.7,5.3c1.7,1.5,3.1,3.2,4.2,5c1.1,1.8,2.6,5,4.5,9.7l4.8,11.6H385l-5.7-12.9
		c-2.1-4.7-3.5-7.6-4.2-8.8c-0.7-1.2-1.5-2-2.4-2.4c-0.8-0.4-2.2-0.7-4-0.7h-1.6V195H359.2z M367.1,160.7h5.9c3.6,0,5.9-0.2,6.9-0.6
		c1-0.4,1.8-1.2,2.4-2.4c0.6-1.2,0.9-2.8,0.9-4.7c0-1.9-0.3-3.4-0.9-4.6c-0.6-1.1-1.4-1.9-2.5-2.4c-0.7-0.3-2.9-0.4-6.4-0.4h-6.2
		V160.7z"/>
	<polygon class="st2" points="398.9,195 398.9,135.6 406.6,135.6 422.7,175.3 422.7,135.6 430.1,135.6 430.1,195 422.1,195 
		406.3,156.3 406.3,195 	"/>
	<rect x="438.2" y="135.6" class="st2" width="7.9" height="59.4"/>
	<path class="st2" d="M489.2,195h-8.6l-3.4-13.4h-15.7l-3.3,13.4h-8.4l15.3-59.4h8.4L489.2,195z M474.6,171.5l-5.4-22l-5.3,22H474.6
		z"/>
	<path class="st2" d="M262.3,234.5v-19.5h6.7c1.5,0,2.7,0.1,3.5,0.3c1.1,0.3,2.1,0.7,2.8,1.4c1,0.9,1.8,2,2.3,3.3
		c0.5,1.3,0.8,2.9,0.8,4.6c0,1.5-0.2,2.8-0.5,3.9c-0.3,1.1-0.8,2.1-1.3,2.8c-0.5,0.7-1.1,1.3-1.8,1.8s-1.4,0.8-2.3,1
		c-0.9,0.2-2,0.3-3.1,0.3H262.3z M264.9,232.2h4.2c1.3,0,2.3-0.1,3-0.4c0.7-0.2,1.3-0.6,1.8-1c0.6-0.6,1.1-1.4,1.4-2.5
		c0.3-1,0.5-2.3,0.5-3.8c0-2-0.3-3.6-1-4.7c-0.7-1.1-1.5-1.8-2.4-2.2c-0.7-0.3-1.8-0.4-3.3-0.4h-4.1V232.2z"/>
	<polygon class="st2" points="282,234.5 282,215.1 296,215.1 296,217.4 284.5,217.4 284.5,223.3 295.3,223.3 295.3,225.6 
		284.5,225.6 284.5,232.2 296.5,232.2 296.5,234.5 	"/>
	<path class="st2" d="M300,234.5v-19.5h7.3c1.3,0,2.3,0.1,3,0.2c0.9,0.2,1.8,0.5,2.4,0.9c0.6,0.4,1.2,1.1,1.6,1.9
		c0.4,0.8,0.6,1.7,0.6,2.7c0,1.7-0.5,3.1-1.6,4.2c-1.1,1.2-3,1.7-5.7,1.7h-5v7.9H300z M302.6,224.3h5c1.7,0,2.8-0.3,3.5-0.9
		c0.7-0.6,1-1.5,1-2.6c0-0.8-0.2-1.5-0.6-2.1c-0.4-0.6-1-1-1.6-1.2c-0.4-0.1-1.2-0.2-2.4-0.2h-5V224.3z"/>
	<path class="st2" d="M314,234.5l7.5-19.5h2.8l8,19.5h-2.9l-2.3-5.9h-8.1l-2.1,5.9H314z M319.6,226.5h6.6l-2-5.4
		c-0.6-1.6-1.1-3-1.4-4c-0.2,1.2-0.6,2.5-1,3.7L319.6,226.5z"/>
	<path class="st2" d="M334.3,234.5v-19.5h8.6c1.7,0,3.1,0.2,4,0.5c0.9,0.3,1.6,1,2.2,1.9c0.5,0.9,0.8,1.9,0.8,2.9
		c0,1.4-0.4,2.5-1.3,3.5c-0.9,0.9-2.3,1.6-4.1,1.8c0.7,0.3,1.2,0.6,1.6,1c0.7,0.7,1.5,1.6,2.1,2.6l3.4,5.3h-3.2l-2.6-4.1
		c-0.8-1.2-1.4-2.1-1.9-2.7c-0.5-0.6-0.9-1-1.3-1.3c-0.4-0.2-0.8-0.4-1.2-0.5c-0.3-0.1-0.8-0.1-1.4-0.1h-3v8.6H334.3z M336.9,223.7
		h5.5c1.2,0,2.1-0.1,2.8-0.4c0.7-0.2,1.2-0.6,1.5-1.2c0.3-0.5,0.5-1.1,0.5-1.7c0-0.9-0.3-1.7-1-2.3c-0.7-0.6-1.7-0.9-3.2-0.9h-6.2
		V223.7z"/>
	<polygon class="st2" points="358.4,234.5 358.4,217.4 352,217.4 352,215.1 367.4,215.1 367.4,217.4 361,217.4 361,234.5 	"/>
	<path class="st2" d="M370,234.5v-19.5h3.9l4.6,13.8c0.4,1.3,0.7,2.2,0.9,2.9c0.2-0.7,0.6-1.8,1-3.1l4.7-13.5h3.5v19.5h-2.5v-16.3
		l-5.7,16.3h-2.3l-5.6-16.6v16.6H370z"/>
	<polygon class="st2" points="392.7,234.5 392.7,215.1 406.8,215.1 406.8,217.4 395.3,217.4 395.3,223.3 406.1,223.3 406.1,225.6 
		395.3,225.6 395.3,232.2 407.3,232.2 407.3,234.5 	"/>
	<polygon class="st2" points="410.8,234.5 410.8,215.1 413.4,215.1 423.7,230.4 423.7,215.1 426.1,215.1 426.1,234.5 423.5,234.5 
		413.3,219.2 413.3,234.5 	"/>
	<polygon class="st2" points="435.4,234.5 435.4,217.4 429,217.4 429,215.1 444.4,215.1 444.4,217.4 438,217.4 438,234.5 	"/>
	<path class="st2" d="M453.3,225.1c0-3.2,0.9-5.8,2.6-7.6c1.7-1.8,4-2.7,6.7-2.7c1.8,0,3.4,0.4,4.9,1.3c1.4,0.9,2.5,2.1,3.3,3.6
		c0.8,1.5,1.1,3.3,1.1,5.2c0,2-0.4,3.7-1.2,5.3c-0.8,1.6-1.9,2.7-3.4,3.5c-1.5,0.8-3,1.2-4.7,1.2c-1.8,0-3.5-0.4-4.9-1.3
		c-1.4-0.9-2.5-2.1-3.3-3.6C453.7,228.4,453.3,226.8,453.3,225.1 M456,225.1c0,2.3,0.6,4.2,1.9,5.5c1.3,1.3,2.8,2,4.7,2
		c1.9,0,3.5-0.7,4.8-2c1.3-1.4,1.9-3.3,1.9-5.8c0-1.6-0.3-3-0.8-4.1c-0.5-1.2-1.3-2.1-2.4-2.7c-1-0.6-2.2-1-3.5-1
		c-1.8,0-3.4,0.6-4.7,1.9C456.7,220.1,456,222.2,456,225.1"/>
	<polygon class="st2" points="475.4,234.5 475.4,215.1 488.5,215.1 488.5,217.4 478,217.4 478,223.4 487.1,223.4 487.1,225.7 
		478,225.7 478,234.5 	"/>
	<path class="st3" d="M344.3,366.5c0,0-2.4-2.5-1.8-3.2c0.4-0.5,6.5-6.5,6.5-6.5s0.3-3.4,0.9-5.6c0.7-2.6,1.3-3.1,3.2-5
		c0.3-0.3-0.3-1.4-0.3-1.7c-0.2-0.8,0-1.7,0.2-2.4c0.4-1.3,1.6-2.2,2.9-2.5c1.6-0.3,3.2,3.5,5.6,2.7c1.4-0.5,0.8-3.3,3.2-3.4
		c6.7-0.3,11.6-5.5,18-6.9h1.5c0,0,2.4-1.5,2.5-1.5c0.9-0.6,1.3-2.9,2.5-3.7c1.7-1.2,3.3,0,5-0.9c2.1-1.1,3.1-3.4,5.8-4.3
		c3.2-1,6.7-1,9.9-0.5c8.3,1.2,17.1,7.8,25.5,6.9c3-0.3,5.3-2,8.4-2h3c3.2,0,6.3-0.4,9.6-0.1c4.7,0.3,8.7,4.7,12.6,7
		c4.3,2.6,8.5,6.2,10.2,11.1c0.9,2.7,2.4,9.1-0.9,10.6c3.8,1.1,2.1,8.9,1.6,11.6c-0.4,1.8-0.2,3.4,0,5.2c0.1,1.5-0.4,3.3-0.1,4.7
		c0.8,3.4,4.5,6.7,6,9.9c0,0,1.2,2.6,1,3.5c-0.1,0.3-1,1-1,1s-1.9,2.4-2,2.5c-1.1,1.4,0.1,1.5-1.8,2.3c-2.7,1.1-5.8,0.8-8.6,1.2
		c-1.7,0.3-3.6,1-5.3,1h-0.5c0,0-2.9-0.3-3.4-1c-0.2-0.3,0-1.5,0-1.5c3.4-2.2,7.7-2.8,8.9-4c3.4-3.4-8.8-8.2-10.6-9.8
		c-4.8-4.2,1.4-7,5.5-11.1c1.3-1.3,3.1-4.5,6.9-10.1c-1.9,2.3-3.3,5.1-5.2,7.4c-0.9,1.2-4.5,4.7-5.6,5.5c-1.6,1.1-3.2,3.1-4.8,3.9
		c-3.5,1.7-5.2,5.7-7.5,8.7c-1.2,1.6-2.6,3-4.5,3.8c-2,0.9-2,0.7-2.3,3.3c-0.1,0.7-1,2.5-1,2.5s-0.3,1.2-0.5,1.5
		c-0.4,0.6-1.8,1.3-2.5,1.5c-0.8,0.2-3.5,0-3.5,0h-2.5l-3.5,1h-2.5h-3.5c0,0-3.1-0.8-3.2-0.9c-3.4-2.2,3-2.6,4.7-3.5
		c0.7-0.4,1.2-1.2,1.9-1.5c2.2-1,4.2,0,4.9-2.9c0.5-2.1-0.2-4.5-0.4-6.7c-0.3-2.2-0.6-4.6-1.7-6.6c-0.7-1.2-1.9-2.4-1.2-4
		c0,0,2.2-4,2.7-5.1c0.9-1.9,1.5-3,0.6-5c0.4,3.7-2.1,7.9-4.6,10.4c-1.9,1.8-7.1,0.7-9.5,0.3c-2.4-0.4-2.7-1.5-4.9-1.5
		c0,0-2.9-0.1-2.9,0c0,0.2,2,3.1,2.3,3.6c2.1,3.4,2.7,6.8,2.7,10.7v3.9c0,0,0,0.3,0,0.5c-0.3,1-2.3,1.9-3.2,2.3
		c-0.4,0.2-0.8,0-1.2,0.2c-0.7,0.5-1,1.6-1.8,1.9c-0.8,0.3-2.4,0-3.2,0c-1.7,0-3.6-0.6-5.3-0.2c-0.6,0.2-2.4,0.7-3.1,0.5
		c-0.5-0.2-8.8,0.6-5.9-2.3c0.3-0.4,1.5-0.4,2-0.5c1.2-0.3,4.6-2.2,4.6-2.2s3.7-1.7,3.9-3.8c0.1-1.6-0.1-3.3-1.6-4.2
		c-0.8-0.6-3.8-0.3-4.3-1c-0.6-0.9,3.6-4.8,5.5-12.9c-1.1,6.7-5.1,9.6-6.7,12.7c-0.3,0.6-2,0.9-2.5,1.5c-0.6,0.7-1.5,3.4-1.5,3.4
		s-0.7,1.2-1,1.5c-0.7,0.8-3.4,2.4-3.4,2.5c-2.6,1.8-6.7,2.5-8.4,5.4c-0.5,0.9-1.6,2.5-2.5,2.5h-3.9h-3.9h-2l-3.9-0.5
		c0,0-2.6,0.2-3.5,0c-0.6-0.1-2.1-0.4-2.5-1c-0.2-0.3,0-1.5,0-1.5s0.9-1.7,1.5-2c1.3-0.7,3.1,0,4.5,0c2.4,0,4.4-1.8,6.3-3l2.5-2.5
		l1-3l2.5-4.9l2.5-3.5c0,0,1.3-2.5,1.5-3.4c0.1-1-0.3-3,0-3.9c0.4-1.1,2.4-2.5,2.9-3.4c0.3-0.5,0.5-2.2,0-2.5
		c-0.8-0.4-2.1,0.6-2.6,1c-1,0.7-1.9,1.5-3.1,2.1c-0.6,0.3-1.2,0.7-1.9,0.8c-1,0.2-2.5-0.3-3.4,0.4c-1,0.7,0.8,2.4,1.4,2.9
		c1.1,1-3.4-1.7-3.4-1.7s0.6,1.2,1.4,2.2c0.8,1-3.8-2-3.8-2l1,3.2c0.3,0.9-2.2-2.9-2.2-2.9c-2.8,2.8-8.5,1-11.9,0.7
		c-2.1-0.2-7.8,0.5-8.2-1.6c0-0.3,1.5-0.6,1.7-0.6c0.6-0.2,1.3-0.2,1.8-0.5c0.2-0.1,1.4-0.9,1-1.3
		C349.9,364.9,345.1,368.3,344.3,366.5"/>
	<path class="st4" d="M344.3,366.5c0,0-2.4-2.5-1.8-3.2c0.4-0.5,6.5-6.5,6.5-6.5s0.3-3.4,0.9-5.6c0.7-2.6,1.3-3.1,3.2-5
		c0.3-0.3-0.3-1.4-0.3-1.7c-0.2-0.8,0-1.7,0.2-2.4c0.4-1.3,1.6-2.2,2.9-2.5c1.6-0.3,3.2,3.5,5.6,2.7c1.4-0.5,0.8-3.3,3.2-3.4
		c6.7-0.3,11.6-5.5,18-6.9h1.5c0,0,2.4-1.5,2.5-1.5c0.9-0.6,1.3-2.9,2.5-3.7c1.7-1.2,3.3,0,5-0.9c2.1-1.1,3.1-3.4,5.8-4.3
		c3.2-1,6.7-1,9.9-0.5c8.3,1.2,17.1,7.8,25.5,6.9c3-0.3,5.3-2,8.4-2h3c3.2,0,6.3-0.4,9.6-0.1c4.7,0.3,8.7,4.7,12.6,7
		c4.3,2.6,8.5,6.2,10.2,11.1c0.9,2.7,2.4,9.1-0.9,10.6c3.8,1.1,2.1,8.9,1.6,11.6c-0.4,1.8-0.2,3.4,0,5.2c0.1,1.5-0.4,3.3-0.1,4.7
		c0.8,3.4,4.5,6.7,6,9.9c0,0,1.2,2.6,1,3.5c-0.1,0.3-1,1-1,1s-1.9,2.4-2,2.5c-1.1,1.4,0.1,1.5-1.8,2.3c-2.7,1.1-5.8,0.8-8.6,1.2
		c-1.7,0.3-3.6,1-5.3,1h-0.5c0,0-2.9-0.3-3.4-1c-0.2-0.3,0-1.5,0-1.5c3.4-2.2,7.7-2.8,8.9-4c3.4-3.4-8.8-8.2-10.6-9.8
		c-4.8-4.2,1.4-7,5.5-11.1c1.3-1.3,3.1-4.5,6.9-10.1c-1.9,2.3-3.3,5.1-5.2,7.4c-0.9,1.2-4.5,4.7-5.6,5.5c-1.6,1.1-3.2,3.1-4.8,3.9
		c-3.5,1.7-5.2,5.7-7.5,8.7c-1.2,1.6-2.6,3-4.5,3.8c-2,0.9-2,0.7-2.3,3.3c-0.1,0.7-1,2.5-1,2.5s-0.3,1.2-0.5,1.5
		c-0.4,0.6-1.8,1.3-2.5,1.5c-0.8,0.2-3.5,0-3.5,0h-2.5l-3.5,1h-2.5h-3.5c0,0-3.1-0.8-3.2-0.9c-3.4-2.2,3-2.6,4.7-3.5
		c0.7-0.4,1.2-1.2,1.9-1.5c2.2-1,4.2,0,4.9-2.9c0.5-2.1-0.2-4.5-0.4-6.7c-0.3-2.2-0.6-4.6-1.7-6.6c-0.7-1.2-1.9-2.4-1.2-4
		c0,0,2.2-4,2.7-5.1c0.9-1.9,1.5-3,0.6-5c0.4,3.7-2.1,7.9-4.6,10.4c-1.9,1.8-7.1,0.7-9.5,0.3c-2.4-0.4-2.7-1.5-4.9-1.5
		c0,0-2.9-0.1-2.9,0c0,0.2,2,3.1,2.3,3.6c2.1,3.4,2.7,6.8,2.7,10.7v3.9c0,0,0,0.3,0,0.5c-0.3,1-2.3,1.9-3.2,2.3
		c-0.4,0.2-0.8,0-1.2,0.2c-0.7,0.5-1,1.6-1.8,1.9c-0.8,0.3-2.4,0-3.2,0c-1.7,0-3.6-0.6-5.3-0.2c-0.6,0.2-2.4,0.7-3.1,0.5
		c-0.5-0.2-8.8,0.6-5.9-2.3c0.3-0.4,1.5-0.4,2-0.5c1.2-0.3,4.6-2.2,4.6-2.2s3.7-1.7,3.9-3.8c0.1-1.6-0.1-3.3-1.6-4.2
		c-0.8-0.6-3.8-0.3-4.3-1c-0.6-0.9,3.6-4.8,5.5-12.9c-1.1,6.7-5.1,9.6-6.7,12.7c-0.3,0.6-2,0.9-2.5,1.5c-0.6,0.7-1.5,3.4-1.5,3.4
		s-0.7,1.2-1,1.5c-0.7,0.8-3.4,2.4-3.4,2.5c-2.6,1.8-6.7,2.5-8.4,5.4c-0.5,0.9-1.6,2.5-2.5,2.5h-3.9h-3.9h-2l-3.9-0.5
		c0,0-2.6,0.2-3.5,0c-0.6-0.1-2.1-0.4-2.5-1c-0.2-0.3,0-1.5,0-1.5s0.9-1.7,1.5-2c1.3-0.7,3.1,0,4.5,0c2.4,0,4.4-1.8,6.3-3l2.5-2.5
		l1-3l2.5-4.9l2.5-3.5c0,0,1.3-2.5,1.5-3.4c0.1-1-0.3-3,0-3.9c0.4-1.1,2.4-2.5,2.9-3.4c0.3-0.5,0.5-2.2,0-2.5
		c-0.8-0.4-2.1,0.6-2.6,1c-1,0.7-1.9,1.5-3.1,2.1c-0.6,0.3-1.2,0.7-1.9,0.8c-1,0.2-2.5-0.3-3.4,0.4c-1,0.7,0.8,2.4,1.4,2.9
		c1.1,1-3.4-1.7-3.4-1.7s0.6,1.2,1.4,2.2c0.8,1-3.8-2-3.8-2l1,3.2c0.3,0.9-2.2-2.9-2.2-2.9c-2.8,2.8-8.5,1-11.9,0.7
		c-2.1-0.2-7.8,0.5-8.2-1.6c0-0.3,1.5-0.6,1.7-0.6c0.6-0.2,1.3-0.2,1.8-0.5c0.2-0.1,1.4-0.9,1-1.3
		C349.9,364.9,345.1,368.3,344.3,366.5z"/>
	<path class="st2" d="M268.2,308.2l-8.7-30.6h8.8l2.8,12.6c0.8,3.7,1.6,7.6,2.2,10.7h0.1c0.6-3.4,1.5-7,2.4-10.8l3.1-12.5h8.8
		l2.9,12.9c0.8,3.6,1.4,6.8,1.9,10.2h0.1c0.5-3.4,1.4-7,2.1-10.7l3-12.5h8.4l-9.4,30.6h-8.9l-3.1-13.1c-0.7-3.1-1.3-5.9-1.7-9.4
		h-0.1c-0.6,3.4-1.3,6.3-2.1,9.4l-3.5,13.1H268.2z"/>
	<rect x="310.5" y="277.6" class="st2" width="8.2" height="30.6"/>
	<polygon class="st2" points="326,277.7 334.2,277.7 334.2,302.4 348.8,302.4 348.8,308.2 326,308.2 	"/>
	<path class="st2" d="M353.6,278.1c3-0.5,7-0.7,11.1-0.7c7,0,11.6,0.9,15,3.2c3.8,2.4,6.2,6.2,6.2,11.6c0,5.8-2.5,9.9-6,12.4
		c-3.9,2.7-9.8,3.9-16.9,3.9c-4.3,0-7.4-0.2-9.4-0.5V278.1z M361.9,303c0.7,0.1,1.9,0.1,2.9,0.1c7.5,0,12.5-3.4,12.5-10.7
		c0-6.6-4.4-9.7-11.6-9.7c-1.8,0-3,0.1-3.7,0.3V303z"/>
	<polygon class="st2" points="391.4,277.7 399.7,277.7 399.7,302.4 414.2,302.4 414.2,308.2 391.4,308.2 	"/>
	<rect x="419.1" y="277.6" class="st2" width="8.2" height="30.6"/>
	<polygon class="st2" points="434.6,277.7 456.9,277.7 456.9,283.3 442.8,283.3 442.8,290.3 456,290.3 456,295.9 442.8,295.9 
		442.8,308.2 434.6,308.2 	"/>
	<polygon class="st2" points="484.9,295.3 471.4,295.3 471.4,302.5 486.4,302.5 486.4,308.2 463.2,308.2 463.2,277.7 485.7,277.7 
		485.7,283.3 471.4,283.3 471.4,289.7 484.9,289.7 	"/>
	<polygon class="st2" points="260.1,240.2 282.4,240.2 282.4,245.9 268.3,245.9 268.3,252.8 281.4,252.8 281.4,258.5 268.3,258.5 
		268.3,270.7 260.1,270.7 	"/>
	<rect x="288.6" y="240.2" class="st2" width="8.2" height="30.6"/>
	<path class="st2" d="M304.3,263.7c2.2,0.9,5.6,1.9,9.2,1.9c3.8,0,5.8-1.3,5.8-3.4c0-1.9-1.7-3-6.1-4.3c-6.1-1.8-10.1-4.6-10.1-9.1
		c0-5.2,5.3-9.2,13.8-9.2c4.2,0,7.2,0.7,9.3,1.5l-1.9,5.5c-1.4-0.6-4.1-1.4-7.6-1.4c-3.6,0-5.3,1.4-5.3,2.9c0,1.9,2,2.8,6.8,4.4
		c6.5,2,9.4,4.8,9.4,9.2c0,5.1-4.7,9.5-14.7,9.5c-4.2,0-8.3-0.9-10.4-1.9L304.3,263.7z"/>
	<polygon class="st2" points="341.6,240.2 341.6,252 355.2,252 355.2,240.2 363.5,240.2 363.5,270.7 355.2,270.7 355.2,258 
		341.6,258 341.6,270.7 333.4,270.7 333.4,240.2 	"/>
	<path class="st2" d="M404.9,270.7c-0.8-0.7-1.5-1.4-2.4-2.2c-2.4,1.5-5.7,2.7-10,2.7c-8.8,0-12.7-4.4-12.7-8.7c0-4,2.8-6.9,6.9-8.8
		v-0.1c-1.6-1.4-2.8-3.7-2.8-5.9c0-3.9,3.6-8.1,11-8.1c5.6,0,9.9,2.8,9.9,7.2c0,3.1-2.2,5.7-7.2,7.8v0.2c2.1,1.9,4.3,4.2,6.1,5.7
		c1.5-1.9,2.6-4.7,3.1-7.4h7.4c-1,4.6-2.8,8.6-6.1,11.6c2.1,1.9,4.2,3.9,6.5,6H404.9z M393.7,266.3c2.1,0,3.9-0.7,5-1.5
		c-2.3-1.9-5.3-4.7-8.2-7.5c-1.5,0.9-2.9,2.2-2.9,4.2C387.5,264.1,389.8,266.3,393.7,266.3L393.7,266.3z M394.6,244
		c-2.1,0-3.3,1.5-3.3,3.1c0,1.5,0.8,2.9,2.5,4.4c2.7-1.5,4-2.7,4-4.5C397.9,245.6,396.8,244,394.6,244L394.6,244z"/>
	<polygon class="st3" points="394.5,488.6 395.7,484.6 399.7,477.9 398.5,468.3 401.7,463.1 408.4,456.3 402.5,450.8 394.5,433.2 
		366.2,408.5 360.2,403.7 326.3,373.4 308.8,358.3 294.1,346.3 276.5,330 271.7,325.2 265.8,320 258.6,314.1 255,311.3 255,308.5 
		255,307.3 255,305.7 255,299.7 255,295.7 255,287.8 254.2,239.1 254.2,213.6 234.3,213.2 219.9,213.6 200.4,213.2 178.5,212.4 
		171.7,212.4 164.1,211.6 157,211.6 155.4,218.4 159,229.2 158.2,237.1 155.4,239.1 157.4,243.5 149.4,261.5 150.2,266.2 
		158.2,275.8 162.1,283 163.7,287 162.1,294.9 164.9,306.5 163.7,310.1 169.7,317.3 182.5,332 183.7,335.6 181.7,334 180.9,341.6 
		183.7,340.4 193.2,346.7 193.2,345.6 195.2,345.6 194.4,338.4 193.2,336.8 196.4,336.8 199.2,337.6 199.2,340.4 200,340.4 
		196,343.5 198.4,345.6 198,349.1 202,351.5 203.2,357.1 206,359.1 203.2,358.3 196.4,354.3 196.4,351.5 196.4,348.3 194.4,348.3 
		193.2,349.1 193.2,351.5 192.4,356.3 198,369.5 202,374.2 207.2,374.2 210.8,378.2 210,385 206,386.2 208,395 214,400.5 
		221.9,413.3 230.3,423.3 233.5,423.3 235.5,428 233.5,428 234.3,431.2 240.3,434.8 239.1,440 240.3,451.6 244.2,454.7 269.7,457.5 
		275.3,460.7 279.3,466.3 282.5,467.5 295.3,469.1 298,474.3 297.7,477.1 300.8,478.3 305.6,477.9 319.6,487.8 327.9,497.8 
		329.9,510.1 331.1,510.1 332.3,511.3 333.1,513.3 331.1,511.3 332.3,516.1 359.4,512.5 395.7,507.4 399.7,506.6 402.5,501.8 
		402.5,497.8 395.7,495.8 	"/>
</g>
</svg>
